<svg xmlns="http://www.w3.org/2000/svg" width="156" height="63" viewBox="0 0 156 63">
  <defs>
    <style>
      .cls-1 {
        fill: #999;
      }

      .cls-1, .cls-2 {
        fill-rule: evenodd;
      }

      .cls-2 {
        fill: #00a5ff;
      }
    </style>
  </defs>
  <path id="fb" class="cls-1" d="M15,0.5a15,15,0,1,0,15,15A15,15,0,0,0,15,.5Zm3.553,10.366H16.3a0.754,0.754,0,0,0-.564.82v1.628h2.819v2.321H15.734v6.971H13.071V15.635H10.658V13.313h2.413V11.948A3.349,3.349,0,0,1,16.3,8.395h2.255v2.471Z" transform="translate(0 -0.5)"/>
  <path id="twitter" class="cls-1" d="M57,0.5a15,15,0,1,0,15,15A15,15,0,0,0,57,.5Zm6.1,12.289c0.006,0.126.009,0.254,0.009,0.382a8.4,8.4,0,0,1-12.934,7.078,5.966,5.966,0,0,0,4.374-1.223,2.957,2.957,0,0,1-2.76-2.052,2.935,2.935,0,0,0,1.334-.05,2.957,2.957,0,0,1-2.37-2.9c0-.013,0-0.024,0-0.037a2.939,2.939,0,0,0,1.338.37,2.96,2.96,0,0,1-.914-3.946A8.386,8.386,0,0,0,57.267,13.5,2.956,2.956,0,0,1,62.3,10.807a5.919,5.919,0,0,0,1.876-.717,2.967,2.967,0,0,1-1.3,1.635,5.912,5.912,0,0,0,1.7-.465A6.011,6.011,0,0,1,63.1,12.789Z" transform="translate(0 -0.5)"/>
  <path id="Composite_Path" data-name="Composite Path" class="cls-1" d="M99,0.5a15,15,0,1,0,15,15A15,15,0,0,0,99,.5ZM94.992,18.658a3.159,3.159,0,1,1,3.1-3.157A3.127,3.127,0,0,1,94.992,18.658Zm8.015,0a3.159,3.159,0,1,1,3.1-3.157A3.128,3.128,0,0,1,103.007,18.658Z" transform="translate(0 -0.5)"/>
  <path id="linkedin" class="cls-1" d="M141,0.5a15,15,0,1,0,15,15A15,15,0,0,0,141,.5Zm-3.671,21.217h-3.038V11.942h3.038v9.775ZM135.79,10.743a1.522,1.522,0,1,1,1.638-1.518A1.514,1.514,0,0,1,135.79,10.743Zm12.631,10.974h-3.038V16.3c0-1.26-.44-2.12-1.539-2.12a1.669,1.669,0,0,0-1.559,1.14,2.19,2.19,0,0,0-.1.759v5.637h-3.038V15.06c0-1.219-.04-2.238-0.08-3.118h2.638l0.14,1.36h0.06a3.511,3.511,0,0,1,3.019-1.579c2,0,3.5,1.339,3.5,4.217v5.778Z" transform="translate(0 -0.5)"/>
  <path id="fb_copy" data-name="fb copy" class="cls-2" d="M15,33.5a15,15,0,1,0,15,15A15,15,0,0,0,15,33.5Zm3.553,10.366H16.3a0.754,0.754,0,0,0-.564.82v1.628h2.819v2.321H15.734v6.971H13.071V48.635H10.658V46.313h2.413V44.948A3.349,3.349,0,0,1,16.3,41.395h2.255v2.471Z" transform="translate(0 -0.5)"/>
  <path id="twitter_copy" data-name="twitter copy" class="cls-2" d="M57,33.5a15,15,0,1,0,15,15A15,15,0,0,0,57,33.5Zm6.1,12.289c0.006,0.127.009,0.254,0.009,0.382a8.4,8.4,0,0,1-12.934,7.078,5.966,5.966,0,0,0,4.374-1.224,2.957,2.957,0,0,1-2.76-2.052,2.935,2.935,0,0,0,1.334-.05,2.957,2.957,0,0,1-2.37-2.9c0-.013,0-0.024,0-0.037a2.939,2.939,0,0,0,1.338.37,2.96,2.96,0,0,1-.914-3.946A8.386,8.386,0,0,0,57.267,46.5,2.956,2.956,0,0,1,62.3,43.807a5.919,5.919,0,0,0,1.876-.717,2.967,2.967,0,0,1-1.3,1.635,5.912,5.912,0,0,0,1.7-.465A6.011,6.011,0,0,1,63.1,45.789Z" transform="translate(0 -0.5)"/>
  <path id="Composite_Path_copy" data-name="Composite Path copy" class="cls-2" d="M99,33.5a15,15,0,1,0,15,15A15,15,0,0,0,99,33.5ZM94.992,51.658a3.159,3.159,0,1,1,3.1-3.157A3.127,3.127,0,0,1,94.992,51.658Zm8.015,0a3.159,3.159,0,1,1,3.1-3.157A3.128,3.128,0,0,1,103.007,51.658Z" transform="translate(0 -0.5)"/>
  <path id="linkedin_copy" data-name="linkedin copy" class="cls-2" d="M141,33.5a15,15,0,1,0,15,15A15,15,0,0,0,141,33.5Zm-3.671,21.217h-3.038V44.942h3.038v9.775ZM135.79,43.743a1.522,1.522,0,1,1,1.638-1.518A1.514,1.514,0,0,1,135.79,43.743Zm12.631,10.974h-3.038V49.3c0-1.259-.44-2.12-1.539-2.12a1.669,1.669,0,0,0-1.559,1.14,2.19,2.19,0,0,0-.1.759v5.637h-3.038V48.06c0-1.219-.04-2.238-0.08-3.118h2.638l0.14,1.36h0.06a3.511,3.511,0,0,1,3.019-1.579c2,0,3.5,1.339,3.5,4.217v5.778Z" transform="translate(0 -0.5)"/>
</svg>
